<mxfile host="Drawpyo" modified="2024-12-20T22:31:04" agent="Python 3.10, Drawpyo 0.01" version="21.6.5" type="device">
  <diagram name="Page-1" id="1760237689712">
    <mxGraphModel dx="2037" dy="830" grid="1" gridSize="10" guides="1" toolTips="1" connect="1" arrows="1" fold="1" page="1" pageScale="1" pageWidth="850" pageHeight="1100" math="0" shadow="0">
      <root>
        <mxCell id="0" />
        <mxCell id="1" parent="0" />
        <mxCell id="1760237690720" value="" style="swimlane;whiteSpace=wrap;rounded=0;dashed=0;horizontal=0;" vertex="1" parent="1">
  <mxGeometry x="0" y="0" width="840" height="400" as="geometry" />
</mxCell>
        <mxCell id="1760237690912" value="sun" style="whiteSpace=wrap;rounded=0;dashed=0;" vertex="1" parent="1760237690720">
  <mxGeometry x="100" y="300" width="120" height="80" as="geometry" />
</mxCell>
        <mxCell id="1760237690960" value="bun" style="whiteSpace=wrap;rounded=0;dashed=0;" vertex="1" parent="1760237690720">
  <mxGeometry x="300" y="300" width="120" height="80" as="geometry" />
</mxCell>
        <mxCell id="1760237691104" style="edgeStyle=orthogonalEdgeStyle;orthogonalLoop=1;rounded=0;jettySize=auto;" edge="1" parent="1" source="1760237690912" target="1760237690960">
  <mxGeometry relative="1" as="geometry" />
</mxCell>
        <mxCell id="1760237691248" value="ton" style="whiteSpace=wrap;rounded=0;dashed=0;" vertex="1" parent="1760237690720">
  <mxGeometry x="500" y="300" width="120" height="80" as="geometry" />
</mxCell>
        <mxCell id="1760237691392" style="edgeStyle=orthogonalEdgeStyle;orthogonalLoop=1;rounded=0;jettySize=auto;" edge="1" parent="1" source="1760237690960" target="1760237691248">
  <mxGeometry relative="1" as="geometry" />
</mxCell>
        <mxCell id="1760237691536" value="mon" style="whiteSpace=wrap;rounded=0;dashed=0;" vertex="1" parent="1760237690720">
  <mxGeometry x="700" y="300" width="120" height="80" as="geometry" />
</mxCell>
        <mxCell id="1760237691680" style="edgeStyle=orthogonalEdgeStyle;orthogonalLoop=1;rounded=0;jettySize=auto;" edge="1" parent="1" source="1760237691248" target="1760237691536">
  <mxGeometry relative="1" as="geometry" />
</mxCell>
      </root>
    </mxGraphModel>
  </diagram>
</mxfile>